<svg xmlns="http://www.w3.org/2000/svg" xmlns:xlink="http://www.w3.org/1999/xlink" version="1.1" x="0px" y="0px" viewBox="0 0 100 125" enable-background="new 0 0 100 100" xml:space="preserve"><g display="none"><rect x="-137.382" y="-368.38" display="inline" fill="#000000" stroke="#000000" stroke-width="0.4634" stroke-miterlimit="10" width="1226.941" height="1582.379"/></g><g><g><path d="M50.435,4.719c-0.001,0-0.001,0-0.002,0l-0.865,0c-8.053,0-15.616,3.131-21.304,8.817    c-5.691,5.688-8.826,13.253-8.826,21.3v27.875h8.017v0.504c0,8.84,7.191,16.031,16.031,16.031h2.007v16.034h35.068V34.837    c0-8.046-3.134-15.61-8.826-21.299C66.046,7.852,58.48,4.719,50.435,4.719z M58.696,7.611L58.696,7.611L58.696,7.611L58.696,7.611    z M77.562,92.281H48.494V76.247h-5.007c-7.186,0-13.031-5.846-13.031-13.031v-3.504h-8.017V34.836    c0-7.246,2.822-14.057,7.946-19.178c4.938-4.936,11.502-7.749,18.484-7.923l0.637-0.016l-0.137,0.623    c-0.086,0.394-0.13,0.792-0.13,1.186v7.15c0,1.919-1.557,3.48-3.47,3.48h-3.769l-0.023-0.476c-0.071-1.449-1.256-2.584-2.7-2.584    h-2.536c-1.497,0-2.715,1.218-2.715,2.715v2.536c0,1.497,1.218,2.715,2.715,2.715h2.536c1.395,0,2.55-1.055,2.686-2.454    l0.044-0.452h3.762c3.016,0,5.47-2.458,5.47-5.48v-7.15c0-0.505,0.111-1,0.332-1.469l0.144-0.307l0.338,0.02    c1.783,0.104,3.556,0.384,5.27,0.831L57.696,8.7v21.229c0,3.019,2.456,5.474,5.474,5.474h4.409l0.07,0.417    c0.22,1.313,1.342,2.267,2.668,2.267h2.535c1.497,0,2.715-1.218,2.715-2.715v-2.536c0-1.497-1.218-2.715-2.715-2.715h-2.535    c-1.497,0-2.715,1.218-2.715,2.715v0.5l-0.5,0.066H63.17c-1.916,0-3.474-1.559-3.474-3.474v-5.935h4.67l0.034,0.463    c0.104,1.413,1.287,2.519,2.693,2.519h2.486c1.546,0,2.765-1.218,2.765-2.715v-2.536c0-1.497-1.218-2.715-2.715-2.715h-2.535    c-0.617,0-1.207,0.215-1.706,0.624c-0.582,0.476-0.933,1.149-0.987,1.896l-0.034,0.463h-4.67V9.331L60.379,9.6    c3.471,1.365,6.578,3.404,9.236,6.061c5.124,5.121,7.946,11.932,7.946,19.177V92.281z M39.993,19.813v2.536    c0,0.394-0.321,0.715-0.715,0.715h-2.536c-0.394,0-0.715-0.321-0.715-0.715v-2.536c0-0.394,0.321-0.715,0.715-0.715h2.536    C39.672,19.099,39.993,19.419,39.993,19.813z M69.602,35.372v-2.536c0-0.394,0.321-0.715,0.715-0.715h2.535    c0.395,0,0.715,0.321,0.715,0.715v2.536c0,0.394-0.321,0.715-0.715,0.715h-2.535C69.923,36.087,69.602,35.766,69.602,35.372z     M66.378,24.261v-2.536c0-0.394,0.321-0.715,0.715-0.715h2.535c0.395,0,0.715,0.321,0.715,0.715v2.536    c0,0.394-0.321,0.715-0.715,0.715h-2.535C66.699,24.976,66.378,24.655,66.378,24.261z"/><path d="M29.504,34.441c1.458-0.038,2.645-1.252,2.645-2.707v-2.536c0-1.497-1.218-2.715-2.715-2.715h-2.535    c-1.497,0-2.715,1.218-2.715,2.715v2.536c0,1.364,1.029,2.516,2.393,2.68l0.44,0.053v3.829c0,1.908,1.553,3.461,3.461,3.461    h15.896c1.908,0,3.461-1.553,3.461-3.461v-2.789l0.452-0.043c1.4-0.135,2.456-1.29,2.456-2.686v-2.536    c0-1.497-1.218-2.715-2.715-2.715h-2.535c-1.497,0-2.715,1.218-2.715,2.715v2.536c0,1.442,1.134,2.628,2.582,2.699l0.475,0.023    v2.795c0,0.806-0.655,1.461-1.461,1.461H30.479c-0.806,0-1.461-0.655-1.461-1.461v-3.843L29.504,34.441z M47.494,33.494    c-0.394,0-0.715-0.321-0.715-0.715v-2.536c0-0.394,0.321-0.715,0.715-0.715h2.535c0.395,0,0.715,0.321,0.715,0.715v2.536    c0,0.394-0.321,0.715-0.715,0.715H47.494z M26.899,32.45c-0.395,0-0.715-0.321-0.715-0.715v-2.536    c0-0.394,0.321-0.715,0.715-0.715h2.535c0.394,0,0.715,0.321,0.715,0.715v2.536c0,0.394-0.321,0.715-0.715,0.715H26.899z"/></g></g><text x="0" y="115" fill="#000000" font-size="5px" font-weight="bold" font-family="'Helvetica Neue', Helvetica, Arial-Unicode, Arial, Sans-serif">Created by Oksana Latysheva</text><text x="0" y="120" fill="#000000" font-size="5px" font-weight="bold" font-family="'Helvetica Neue', Helvetica, Arial-Unicode, Arial, Sans-serif">from the Noun Project</text></svg>