<svg xmlns="http://www.w3.org/2000/svg" xmlns:xlink="http://www.w3.org/1999/xlink" version="1.1" x="0px" y="0px" viewBox="0 0 100 125" enable-background="new 0 0 100 100" xml:space="preserve"><g display="none"><rect x="-977.382" y="-248.38" display="inline" fill="#000000" stroke="#000000" stroke-width="0.4634" stroke-miterlimit="10" width="1226.941" height="1582.379"/></g><g><g><path d="M60.521,69.64c0,0.847,0.937,1.358,1.653,0.908c0.942-0.592,1.624-1.548,1.823-2.693    c1.112-6.395,4.005-12.859,8.598-19.214c4.061-5.617,5.648-12.495,4.472-19.367C75.191,18.308,66.32,9.647,54.993,7.721    c-8.372-1.423-16.783,0.81-23.079,6.125c-5.948,5.022-9.359,12.27-9.359,19.883c0,5.008,1.479,9.876,4.275,14.079    c4.481,6.732,7.445,13.491,8.81,20.09c0.271,1.304,1.155,2.358,2.313,2.899c0.711,0.332,1.529-0.19,1.529-0.975    c0,0,0-0.468,0-0.469c0-0.876-0.468-1.563-0.696-2.37c-0.275-0.969-0.451-1.97-0.721-2.943c-0.57-2.053-1.268-4.07-2.074-6.043    c-1.72-4.211-3.923-8.216-6.442-12c-2.438-3.665-3.729-7.907-3.729-12.269c0-6.649,2.989-12.986,8.201-17.387    c4.457-3.763,10.124-5.774,16.021-5.774c1.459,0,2.933,0.123,4.404,0.373c9.962,1.694,17.759,9.283,19.402,18.883    c1.026,6-0.358,12.002-3.899,16.903c-4.887,6.76-7.972,13.68-9.17,20.568"/><path d="M60.926,78.913c1.448,0,2.632-1.184,2.632-2.632s-1.184-2.632-2.632-2.632H38.78c-1.448,0-2.632,1.184-2.632,2.632    s1.184,2.632,2.632,2.632H60.926z"/><path d="M63.855,83.362c0-1.448-1.184-2.632-2.632-2.632H39.078c-1.448,0-2.632,1.184-2.632,2.632    c0,1.448,1.184,2.632,2.632,2.632h22.146C62.671,85.994,63.855,84.809,63.855,83.362z"/><path d="M44.363,88.187c-1.241,0-2.256,1.015-2.256,2.256c0,1.241,1.015,2.256,2.256,2.256h10.682    c1.241,0,2.256-1.015,2.256-2.256c0-1.241-1.015-2.256-2.256-2.256H44.363z"/><path d="M55.35,51.826c0.182,0.014,0.366,0.022,0.55,0.022c0.584,0,1.168-0.074,1.737-0.221c2.444-0.618,4.323-2.454,5.197-4.781    c0.138-0.368,0.445-0.63,0.829-0.717c2.275-0.514,4.244-2.151,5.243-4.457c1.043-2.408,0.875-5.1-0.249-7.267    c-0.18-0.346-0.179-0.747,0.002-1.093c1.133-2.163,1.31-4.855,0.274-7.27c-0.99-2.312-2.951-3.955-5.224-4.477    c-0.383-0.088-0.689-0.352-0.826-0.72c-0.865-2.332-2.739-4.179-5.188-4.811c-0.575-0.148-1.164-0.223-1.753-0.223h0    c-0.732,0-1.459,0.115-2.16,0.343c-1.154,0.375-2.169,1.066-2.985,1.967c-0.42,0.464-1.168,0.464-1.588,0    c-0.816-0.902-1.831-1.593-2.985-1.967c-0.701-0.228-1.428-0.343-2.16-0.343c-0.588,0-1.178,0.075-1.753,0.223    c-2.449,0.631-4.324,2.478-5.189,4.811c-0.137,0.368-0.443,0.632-0.826,0.72c-2.273,0.523-4.234,2.166-5.225,4.479    c-1.035,2.413-0.858,5.105,0.275,7.268c0.181,0.346,0.182,0.746,0.002,1.093c-1.125,2.167-1.292,4.859-0.249,7.267    c0.999,2.307,2.968,3.944,5.243,4.457c0.383,0.087,0.691,0.349,0.829,0.717c0.875,2.327,2.757,4.164,5.209,4.784    c0.555,0.143,1.139,0.217,1.723,0.217c0.184,0,0.368-0.007,0.55-0.022c0.771-0.061,1.507-0.257,2.19-0.565    c0.717-0.323,1.525,0.234,1.525,1.021v8.701v5.676c0,0.611,0.495,1.106,1.106,1.106h1.054c0.611,0,1.106-0.495,1.106-1.106v-5.676    v-8.701c0-0.787,0.808-1.344,1.525-1.021C53.843,51.569,54.579,51.764,55.35,51.826z M48.322,24.097v4.762v9.943v3.57v1.599    c0,2.501-1.678,4.687-3.906,4.864c-0.104,0.008-0.208,0.012-0.313,0.012c-0.324,0-0.658-0.041-0.988-0.126    c-1.942-0.491-3.3-2.333-3.463-4.442c-0.051-0.655-0.64-1.089-1.292-1.009c-0.162,0.02-0.325,0.03-0.486,0.03    c-1.657,0-3.25-1.038-4.021-2.82c-0.882-2.037-0.417-4.417,1.007-5.87c0.413-0.422,0.412-1.097-0.003-1.518    c-1.428-1.447-1.903-3.824-1.027-5.867c0.767-1.791,2.364-2.837,4.027-2.837c0.155,0,0.311,0.009,0.467,0.028    c0.653,0.077,1.242-0.358,1.29-1.014c0.154-2.113,1.505-3.962,3.446-4.462c0.337-0.087,0.673-0.128,1.004-0.128    c0.423,0,0.838,0.068,1.233,0.196c1.82,0.591,3.026,2.532,3.026,4.655V24.097z M51.681,42.372v-3.57V28.86v-4.762v-0.435    c0-2.123,1.206-4.064,3.026-4.655c0.395-0.128,0.81-0.196,1.233-0.196c0.331,0,0.667,0.042,1.004,0.128    c1.94,0.5,3.291,2.349,3.446,4.462c0.048,0.656,0.637,1.092,1.29,1.014c0.156-0.018,0.312-0.028,0.467-0.028    c1.664,0,3.26,1.046,4.027,2.837c0.876,2.043,0.401,4.42-1.027,5.867c-0.415,0.42-0.417,1.096-0.003,1.518    c1.423,1.454,1.889,3.833,1.007,5.87c-0.772,1.782-2.365,2.82-4.021,2.82c-0.162,0-0.324-0.01-0.486-0.03    c-0.652-0.081-1.241,0.354-1.292,1.009c-0.163,2.11-1.521,3.952-3.463,4.442c-0.331,0.085-0.664,0.126-0.988,0.126    c-0.105,0-0.209-0.004-0.313-0.012c-2.228-0.177-3.906-2.363-3.906-4.864V42.372z"/></g></g><text x="0" y="115" fill="#000000" font-size="5px" font-weight="bold" font-family="'Helvetica Neue', Helvetica, Arial-Unicode, Arial, Sans-serif">Created by Oksana Latysheva</text><text x="0" y="120" fill="#000000" font-size="5px" font-weight="bold" font-family="'Helvetica Neue', Helvetica, Arial-Unicode, Arial, Sans-serif">from the Noun Project</text></svg>